<?xml version="1.0" encoding="utf-8"?>
<!-- Generator: Adobe Illustrator 25.2.1, SVG Export Plug-In . SVG Version: 6.00 Build 0)  -->
<svg version="1.1" id="Calque_1" xmlns="http://www.w3.org/2000/svg" xmlns:xlink="http://www.w3.org/1999/xlink" x="0px" y="0px"
	 viewBox="0 0 91.15 94" style="enable-background:new 0 0 91.15 94;" xml:space="preserve">
<style type="text/css">
	.st0{fill:#201A3D;}
	.st1{fill:url(#SVGID_1_);}
	.st2{fill:url(#SVGID_2_);}
	.st3{fill:url(#SVGID_3_);}
	.st4{fill:url(#SVGID_4_);}
</style>
<g id="Flèche_25">
</g>
<g>
	<g>
		<path class="st0" d="M23.54,54.53v6.79h-0.51v-6.03l-2.51,4.17h-0.09l-2.51-4.17v6.03H17.4v-6.79h0.64l2.42,4.02l2.42-4.02H23.54z
			"/>
		<path class="st0" d="M31.25,61.32l-0.66-1.73h-3.4l-0.66,1.73h-0.54l2.64-6.79h0.54l2.63,6.79H31.25z M27.38,59.11h3.03
			l-1.51-3.95L27.38,59.11z"/>
		<path class="st0" d="M40.45,58.16v0.26c0,0.85-0.3,1.56-0.9,2.14c-0.6,0.58-1.39,0.87-2.38,0.87c-1.04,0-1.89-0.34-2.56-1.01
			c-0.67-0.68-1.01-1.5-1.01-2.49c0-0.98,0.33-1.81,1-2.49s1.51-1.01,2.53-1.01c0.62,0,1.19,0.15,1.71,0.45s0.92,0.7,1.21,1.19
			l-0.46,0.27c-0.23-0.43-0.56-0.77-1-1.03s-0.93-0.39-1.46-0.39c-0.88,0-1.6,0.29-2.17,0.87c-0.57,0.58-0.85,1.29-0.85,2.14
			c0,0.85,0.29,1.56,0.85,2.14c0.57,0.58,1.3,0.87,2.2,0.87c0.79,0,1.44-0.22,1.93-0.65c0.49-0.43,0.77-0.98,0.82-1.64h-2.88v-0.49
			H40.45z"/>
		<path class="st0" d="M47.52,61.32l-0.66-1.73h-3.4l-0.66,1.73h-0.54l2.64-6.79h0.54l2.63,6.79H47.52z M43.65,59.11h3.03
			l-1.51-3.95L43.65,59.11z"/>
		<path class="st0" d="M50.66,60.84h3.76v0.49h-4.34v-0.49l3.67-5.82h-3.57v-0.49h4.14v0.49L50.66,60.84z"/>
		<path class="st0" d="M57.04,54.53h0.51v6.79h-0.51V54.53z"/>
		<path class="st0" d="M65.16,54.53h0.51v6.79h-0.46l-4.01-5.84v5.84H60.7v-6.79h0.45l4.02,5.84V54.53z"/>
		<path class="st0" d="M69.33,60.84h3.39v0.49h-3.91v-6.79h3.86v0.49h-3.35v2.64h3.1v0.48h-3.1V60.84z"/>
	</g>
	<g>
		<path class="st0" d="M16,40.47v0.68h-2.98v8.82h-0.73v-8.82H9.3v-0.68H16z"/>
		<path class="st0" d="M23.73,40.47h0.72v9.49h-0.72v-4.54h-5.52v4.54H17.5v-9.49h0.72v4.27h5.52V40.47z"/>
		<path class="st0" d="M27.53,49.28h4.75v0.68h-5.47v-9.49h5.4v0.68h-4.68v3.69h4.34v0.68h-4.34V49.28z"/>
		<path class="st0" d="M42.06,50.11c-1.43,0-2.61-0.47-3.54-1.42c-0.93-0.95-1.4-2.1-1.4-3.48c0-1.37,0.47-2.53,1.4-3.48
			c0.93-0.94,2.11-1.42,3.54-1.42c0.87,0,1.66,0.21,2.39,0.62c0.72,0.41,1.28,0.96,1.68,1.66l-0.64,0.37
			c-0.32-0.59-0.78-1.06-1.4-1.42s-1.29-0.54-2.03-0.54c-1.23,0-2.24,0.41-3.03,1.21c-0.79,0.81-1.19,1.81-1.19,2.99
			c0,1.18,0.4,2.18,1.19,2.99c0.79,0.81,1.8,1.21,3.03,1.21c0.74,0,1.42-0.18,2.05-0.54c0.62-0.36,1.09-0.85,1.41-1.45l0.64,0.37
			c-0.39,0.71-0.95,1.27-1.68,1.69C43.74,49.9,42.93,50.11,42.06,50.11z"/>
		<path class="st0" d="M47.85,40.47h0.72v9.49h-0.72V40.47z"/>
		<path class="st0" d="M56.92,49.96l-2.28-3.89h-3v3.89h-0.72v-9.49h3.74c0.77,0,1.43,0.28,1.98,0.83c0.55,0.55,0.83,1.21,0.83,1.98
			c0,0.64-0.2,1.21-0.59,1.71c-0.39,0.5-0.89,0.83-1.5,0.99l2.36,3.99H56.92z M51.64,41.14v4.25h3.02c0.58,0,1.07-0.21,1.48-0.62
			c0.41-0.41,0.61-0.91,0.61-1.5s-0.2-1.09-0.61-1.51c-0.41-0.42-0.9-0.62-1.48-0.62H51.64z"/>
		<path class="st0" d="M63.63,50.11c-1.43,0-2.61-0.47-3.54-1.42c-0.93-0.95-1.4-2.1-1.4-3.48c0-1.37,0.47-2.53,1.4-3.48
			c0.93-0.94,2.11-1.42,3.54-1.42c0.87,0,1.66,0.21,2.39,0.62c0.72,0.41,1.28,0.96,1.68,1.66l-0.64,0.37
			c-0.32-0.59-0.78-1.06-1.4-1.42s-1.29-0.54-2.03-0.54c-1.23,0-2.24,0.41-3.03,1.21c-0.79,0.81-1.19,1.81-1.19,2.99
			c0,1.18,0.4,2.18,1.19,2.99c0.79,0.81,1.8,1.21,3.03,1.21c0.74,0,1.42-0.18,2.05-0.54c0.62-0.36,1.09-0.85,1.41-1.45l0.64,0.37
			c-0.39,0.71-0.95,1.27-1.68,1.69C65.31,49.9,64.51,50.11,63.63,50.11z"/>
		<path class="st0" d="M70.14,49.28h4.48v0.68h-5.19v-9.49h0.72V49.28z"/>
		<path class="st0" d="M76.83,49.28h4.75v0.68h-5.47v-9.49h5.4v0.68h-4.68v3.69h4.34v0.68h-4.34V49.28z"/>
	</g>
	<g>
		<g>
			
				<linearGradient id="SVGID_1_" gradientUnits="userSpaceOnUse" x1="-3705.9395" y1="4656.0488" x2="-3615.8167" y2="4656.0488" gradientTransform="matrix(0.8037 0.595 -0.595 0.8037 5757.9165 -1518.8601)">
				<stop  offset="0" style="stop-color:#201A3D"/>
				<stop  offset="0.2081" style="stop-color:#E5007E"/>
				<stop  offset="0.427" style="stop-color:#E53212"/>
				<stop  offset="0.6227" style="stop-color:#FFEC00;stop-opacity:0.96"/>
				<stop  offset="0.806" style="stop-color:#009540"/>
				<stop  offset="0.9996" style="stop-color:#009EE2;stop-opacity:0"/>
			</linearGradient>
			<path class="st1" d="M45.38,90.51c-2.58,0-5.17-0.22-7.69-0.66C29.81,88.48,22.38,85,16.18,79.8
				C10.1,74.68,5.46,68.05,2.75,60.61C0.08,53.28-0.67,45.35,0.6,37.68c1.39-8.38,5.13-16.2,10.83-22.6
				C18.9,6.68,29.62,1.26,40.84,0.2l0.24-0.02C42.39,0.06,43.72,0,45.04,0l0.12,0c1.35,0,2.71,0.07,4.06,0.19
				c1.34,0.12,2.69,0.31,4.01,0.56c1.32,0.24,2.65,0.55,3.94,0.91c1.29,0.36,2.59,0.78,3.85,1.25c1.26,0.47,2.51,1.01,3.73,1.59
				c1.22,0.58,2.42,1.23,3.58,1.92c0.27,0.16,0.54,0.33,0.81,0.5c0.47,0.3,0.97,0.63,1.52,1l0.14,0.09
				c0.21,0.14,0.41,0.28,0.61,0.42c0.07,0.05,0.13,0.09,0.2,0.14c0.14,0.09,0.28,0.19,0.41,0.3c0.02,0.01,0.03,0.02,0.05,0.04
				c2.22,1.65,4.27,3.47,6.08,5.39c7.62,8.08,12.01,18.64,12.35,29.73c0.34,11.02-3.37,21.77-10.44,30.27
				c-5.14,6.17-11.85,10.86-19.4,13.56C55.76,89.62,50.62,90.51,45.38,90.51L45.38,90.51z M45.43,1C41.19,1,37,1.6,32.97,2.78
				C22.68,5.78,13.81,12.43,8,21.51c-4.16,6.49-6.56,14-6.93,21.71c-0.37,7.62,1.23,15.23,4.62,22.02
				c3.53,7.06,8.94,13.06,15.64,17.35c6.53,4.18,14.11,6.56,21.91,6.88c0.6,0.02,1.21,0.04,1.81,0.04c6.91,0,13.81-1.63,19.98-4.72
				c7.24-3.62,13.36-9.2,17.72-16.14c5.79-9.22,8-20.68,6.07-31.44c-1.99-11.05-8.06-20.84-17.1-27.58
				c-2.19-1.62-4.51-3.02-6.88-4.19C58.88,2.54,52.17,1,45.43,1z"/>
			
				<linearGradient id="SVGID_2_" gradientUnits="userSpaceOnUse" x1="2660.8501" y1="-1065.3064" x2="2750.967" y2="-1065.3064" gradientTransform="matrix(0.9523 -0.3051 0.3051 0.9523 -2205.7644 1887.0563)">
				<stop  offset="0.0296" style="stop-color:#FFEC00;stop-opacity:0"/>
				<stop  offset="0.2807" style="stop-color:#201A3D"/>
				<stop  offset="0.4701" style="stop-color:#E5007E"/>
				<stop  offset="0.6563" style="stop-color:#E53212"/>
				<stop  offset="0.8416" style="stop-color:#FFEC00;stop-opacity:0.96"/>
				<stop  offset="1" style="stop-color:#009540"/>
			</linearGradient>
			<path class="st2" d="M46.16,92.16c-5.52,0-10.9-0.98-15.99-2.91c-8.46-3.21-15.96-9.1-21.14-16.59c-5.2-7.52-8.1-16.7-8.16-25.84
				c-0.01-2.35,0.16-4.67,0.49-6.89c1.34-9.06,5.58-17.73,11.93-24.4c6.39-6.72,14.9-11.39,23.96-13.15
				c2.81-0.55,5.71-0.82,8.6-0.82c6.64,0,13.28,1.47,19.21,4.27c8.1,3.82,15.1,10.19,19.7,17.96c4.7,7.94,6.94,17.36,6.31,26.52
				c-0.64,9.25-4.25,18.29-10.16,25.46c-5.85,7.1-13.93,12.35-22.75,14.79C54.26,91.62,50.23,92.16,46.16,92.16L46.16,92.16z
				 M46.17,2.65c-5.51,0-10.88,0.99-15.95,2.93c-8.16,3.13-15.44,8.81-20.5,15.99C4.48,29,1.61,38.15,1.64,47.33
				c0.02,2.36,0.21,4.69,0.57,6.91c1.45,8.96,5.83,17.45,12.32,23.91c6.31,6.28,14.6,10.61,23.33,12.2
				c2.61,0.48,5.29,0.72,7.97,0.72c6.59,0,13.17-1.47,19.05-4.25c2.82-1.33,5.52-2.98,8.03-4.9l-0.27-2.71l0.1-0.08
				c2.04-1.63,3.93-3.49,5.61-5.51c2.64-3.19,4.73-6.75,6.21-10.58l0.04-0.1l3.08-1.08c2.19-6.01,3.07-12.54,2.56-18.89
				c-0.74-9.2-4.49-18.1-10.55-25.05C73.85,11.22,65.94,6.31,57.4,4.08C53.76,3.13,49.98,2.65,46.17,2.65z"/>
			
				<linearGradient id="SVGID_3_" gradientUnits="userSpaceOnUse" x1="12155.3203" y1="13919.7236" x2="12245.4355" y2="13919.7236" gradientTransform="matrix(-0.9427 -0.3337 0.3337 -0.9427 6901.0728 17242.209)">
				<stop  offset="0.0296" style="stop-color:#009EE2;stop-opacity:0"/>
				<stop  offset="0.2815" style="stop-color:#201A3D"/>
				<stop  offset="0.4701" style="stop-color:#E5007E"/>
				<stop  offset="0.6559" style="stop-color:#E53212"/>
				<stop  offset="0.8416" style="stop-color:#FFEC00;stop-opacity:0.96"/>
				<stop  offset="1" style="stop-color:#009540"/>
			</linearGradient>
			<path class="st3" d="M45.43,94c-5.23,0-10.36-0.87-15.26-2.6c-2.21-0.79-4.34-1.73-6.32-2.79C15.77,84.29,9.05,77.37,4.92,69.14
				c-4.16-8.29-5.68-17.88-4.27-26.99c1.45-9.42,5.94-18.3,12.64-25c6.33-6.33,14.7-10.76,23.56-12.46
				c2.84-0.54,5.75-0.82,8.65-0.82c6.33,0,12.7,1.33,18.44,3.85c8.48,3.73,15.77,10.18,20.52,18.17c4.7,7.91,6.91,17.29,6.22,26.41
				c-0.72,9.48-4.52,18.67-10.68,25.88c-5.88,6.87-13.96,11.95-22.77,14.29C53.4,93.48,49.43,94,45.43,94z M30.91,90.85
				c2.23,0.78,4.48,1.39,6.69,1.8c2.59,0.48,5.24,0.73,7.89,0.73c6.45,0,12.94-1.46,18.78-4.23c8.04-3.82,14.93-10.15,19.38-17.83
				c4.64-8,6.71-17.46,5.82-26.62c-0.85-8.73-4.38-17.27-9.96-24.05C73.7,13.6,65.63,8.4,56.77,6c-3.69-1-7.51-1.5-11.35-1.5
				c-5.44,0-10.75,1-15.79,2.96c-8.26,3.22-15.56,9.01-20.55,16.29C3.86,31.36,1.1,40.62,1.29,49.83c0.18,8.74,3.06,17.51,8.11,24.7
				C14.63,81.97,22.27,87.77,30.91,90.85L30.91,90.85z"/>
		</g>
		<g>
			
				<linearGradient id="SVGID_4_" gradientUnits="userSpaceOnUse" x1="1866.3502" y1="-812.3257" x2="1896.9335" y2="-822.8495" gradientTransform="matrix(0.9753 -0.2209 0.2209 0.9753 -1637.931 1235.7128)">
				<stop  offset="0" style="stop-color:#009EE2;stop-opacity:0"/>
				<stop  offset="0.2819" style="stop-color:#201A3D"/>
				<stop  offset="0.4701" style="stop-color:#E5007E"/>
				<stop  offset="0.6563" style="stop-color:#E53212"/>
				<stop  offset="0.8412" style="stop-color:#FFEC00;stop-opacity:0.96"/>
				<stop  offset="0.9996" style="stop-color:#009540"/>
			</linearGradient>
			<path class="st4" d="M6.07,31.78l0.09-0.22c0.09-0.23,0.19-0.47,0.29-0.7l0.09-0.22l1.89,0.81l-0.09,0.22
				c-0.09,0.22-0.19,0.44-0.28,0.67l-0.09,0.22L6.07,31.78z M7.3,29l0.1-0.21c0.11-0.23,0.23-0.45,0.34-0.68l0.11-0.21l1.82,0.95
				l-0.11,0.21c-0.11,0.21-0.22,0.43-0.33,0.64l-0.1,0.21L7.3,29z M4.92,34.5L5,34.28c0.09-0.24,0.18-0.48,0.27-0.71l0.09-0.22
				l1.91,0.75l-0.09,0.22c-0.09,0.22-0.17,0.45-0.26,0.67l-0.08,0.22L4.92,34.5z M8.74,26.32l0.12-0.2c0.13-0.22,0.26-0.44,0.4-0.65
				l0.12-0.2l1.74,1.08L11,26.55c-0.13,0.2-0.25,0.41-0.38,0.62l-0.12,0.2L8.74,26.32z M10.38,23.75l0.14-0.19
				c0.15-0.21,0.3-0.42,0.44-0.62l0.14-0.19l1.65,1.21l-0.14,0.19c-0.14,0.19-0.28,0.39-0.42,0.59l-0.14,0.19L10.38,23.75z
				 M12.21,21.32l0.15-0.18c0.16-0.19,0.33-0.39,0.49-0.58L13,20.37l1.56,1.33l-0.15,0.18c-0.16,0.18-0.31,0.37-0.46,0.55
				l-0.15,0.18L12.21,21.32z M14.22,19.03l0.16-0.17c0.18-0.18,0.35-0.37,0.53-0.54l0.17-0.17l1.45,1.45l-0.17,0.17
				c-0.17,0.17-0.34,0.34-0.51,0.52l-0.16,0.17L14.22,19.03z M16.4,16.91l0.18-0.16c0.19-0.17,0.38-0.34,0.57-0.5l0.18-0.15
				l1.34,1.56l-0.18,0.15c-0.18,0.16-0.36,0.32-0.54,0.48l-0.18,0.16L16.4,16.91z M18.73,14.96l0.19-0.14
				c0.2-0.15,0.4-0.31,0.61-0.46l0.19-0.14l1.21,1.65l-0.19,0.14c-0.19,0.14-0.39,0.29-0.58,0.43l-0.19,0.14L18.73,14.96z
				 M21.21,13.19l0.2-0.13c0.21-0.14,0.43-0.28,0.64-0.41l0.2-0.12l1.09,1.74l-0.2,0.12c-0.2,0.13-0.41,0.26-0.61,0.39l-0.2,0.13
				L21.21,13.19z M23.8,11.61l0.21-0.11c0.22-0.12,0.45-0.24,0.67-0.36l0.21-0.11l0.95,1.82l-0.21,0.11
				c-0.21,0.11-0.43,0.23-0.64,0.34l-0.21,0.11L23.8,11.61z M26.51,10.24l0.21-0.1c0.23-0.1,0.46-0.21,0.69-0.31l0.22-0.09
				l0.81,1.88l-0.22,0.09c-0.22,0.09-0.44,0.19-0.66,0.29l-0.21,0.1L26.51,10.24z"/>
		</g>
	</g>
</g>
</svg>
